<svg xmlns="http://www.w3.org/2000/svg" viewBox="0 0 120 120">
  <defs>
    <linearGradient id="shield" x1="0%" y1="0%" x2="0%" y2="100%">
      <stop offset="0%" style="stop-color:#48BB78"/>
      <stop offset="100%" style="stop-color:#276749"/>
    </linearGradient>
  </defs>
  <!-- Shield -->
  <path d="M60 10 L100 25 L100 65 Q100 95 60 110 Q20 95 20 65 L20 25 Z" fill="url(#shield)" stroke="#276749" stroke-width="2"/>
  <!-- Check mark -->
  <path d="M45 55 L55 65 L80 40" fill="none" stroke="white" stroke-width="8" stroke-linecap="round" stroke-linejoin="round"/>
  <!-- Star accents -->
  <polygon points="35,30 37,35 42,35 38,38 40,43 35,40 30,43 32,38 28,35 33,35" fill="#F6E05E"/>
  <polygon points="85,30 87,35 92,35 88,38 90,43 85,40 80,43 82,38 78,35 83,35" fill="#F6E05E"/>
  <!-- Text -->
  <text x="60" y="85" text-anchor="middle" fill="white" font-family="Arial" font-size="9" font-weight="bold">100%</text>
</svg>
